<?xml version="1.0" standalone="no"?><!DOCTYPE svg PUBLIC "-//W3C//DTD SVG 1.1//EN" "http://www.w3.org/Graphics/SVG/1.1/DTD/svg11.dtd"><svg t="1714210574650" class="icon" viewBox="0 0 1024 1024" version="1.1" xmlns="http://www.w3.org/2000/svg" p-id="4289" xmlns:xlink="http://www.w3.org/1999/xlink" width="200" height="200"><path d="M978.36032 924.94336v-33.1008h-33.01376v-33.02912h-33.024v-33.01888h-33.01888v-33.01888h-33.01888v-33.01376h-9.2416c67.57376-80.39424 108.30336-184.10496 108.30336-297.344C945.34144 207.03744 738.29888 0 482.90816 0 227.52256 0 20.48 207.03744 20.48 462.42304c0 255.39072 207.04256 462.43328 462.42816 462.43328 98.2528 0 189.32736-30.6688 264.23296-82.9184v16.88064h33.01888v33.02912h33.01376v33.1008h33.10592v33.024h33.01888v33.01376h33.01888V1024h99.05664v-99.05664h-33.01376zM86.51776 462.42304c0-218.51136 177.792-396.29824 396.3904-396.29824 218.51648 0 396.3904 177.792 396.3904 396.29824 0 218.60864-177.87392 396.39552-396.3904 396.39552-218.60352 0-396.3904-177.78688-396.3904-396.39552z" p-id="4290"></path></svg>