<?xml version="1.0" standalone="no"?><!DOCTYPE svg PUBLIC "-//W3C//DTD SVG 1.1//EN" "http://www.w3.org/Graphics/SVG/1.1/DTD/svg11.dtd"><svg t="1713710775520" class="icon" viewBox="0 0 1024 1024" version="1.1" xmlns="http://www.w3.org/2000/svg" p-id="2409" xmlns:xlink="http://www.w3.org/1999/xlink" width="200" height="200"><path d="M910.772574 75.080679c10.533713-10.533713 27.613034-10.533713 38.146747 0 10.533713 10.534712 10.533713 27.613034 0 38.146747L550.145748 512l398.773573 398.773573c10.533713 10.533713 10.533713 27.613034 0 38.146747-10.534712 10.533713-27.613034 10.533713-38.146747 0L511.999001 550.145748 113.229424 948.919321c-10.429815 10.427817-27.273366 10.532714-37.829057 0.312695l-0.318689-0.312695c-10.533713-10.534712-10.533713-27.613034 0-38.146747l398.772574-398.773573L75.080679 113.229424c-10.533713-10.534712-10.533713-27.613034 0-38.147746 10.534712-10.533713 27.613034-10.533713 38.146747 0L512 473.853253z" fill="#000000" p-id="2410"></path></svg>