<?xml version="1.0" standalone="no"?><!DOCTYPE svg PUBLIC "-//W3C//DTD SVG 1.1//EN" "http://www.w3.org/Graphics/SVG/1.1/DTD/svg11.dtd"><svg t="1714211877387" class="icon" viewBox="0 0 1024 1024" version="1.1" xmlns="http://www.w3.org/2000/svg" p-id="10572" xmlns:xlink="http://www.w3.org/1999/xlink" width="200" height="200"><path d="M957.607 126.049c0 31.933-25.888 57.822-57.822 57.822H124.218c-31.934 0-57.822-25.888-57.822-57.822s25.887-57.822 57.822-57.822h775.566c31.935 0 57.823 25.887 57.823 57.822z m0 385.953c0 31.935-25.888 57.82-57.822 57.82H124.218c-31.934 0-57.822-25.885-57.822-57.82 0-31.934 25.887-57.82 57.822-57.82h775.566c31.935-0.001 57.823 25.886 57.823 57.82z m0 385.951c0 31.935-25.888 57.822-57.822 57.822H124.218c-31.934 0-57.822-25.887-57.822-57.822 0-31.933 25.887-57.82 57.822-57.82h775.566c31.935 0 57.823 25.887 57.823 57.82z" p-id="10573"></path></svg>