<?xml version="1.0" standalone="no"?><!DOCTYPE svg PUBLIC "-//W3C//DTD SVG 1.1//EN" "http://www.w3.org/Graphics/SVG/1.1/DTD/svg11.dtd"><svg t="1714211751920" class="icon" viewBox="0 0 1024 1024" version="1.1" xmlns="http://www.w3.org/2000/svg" p-id="5318" xmlns:xlink="http://www.w3.org/1999/xlink" width="200" height="200"><path d="M510.109613 191.290134c175.747811 0 318.81689 143.06908 318.81689 318.816891s-143.06908 318.81689-318.81689 318.81689H233.834851c-23.413115 0-42.542129-19.029383-42.542129-42.542129V510.107025c0-175.747811 143.06908-318.81689 318.816891-318.816891m0-42.442498C310.550165 148.847636 148.750594 310.647208 148.750594 510.206655v276.274762c0 46.925861 38.058766 84.984627 84.984627 84.984627h276.274761c199.559447 0 361.359019-161.799572 361.35902-361.359019 0.09963-199.559447-161.699942-361.259389-361.259389-361.259389z" p-id="5319"></path><path d="M658.957248 425.122397H361.361607c-11.656743 0-21.221249 9.564507-21.221249 21.22125s9.564507 21.221249 21.221249 21.221249h297.595641c11.656743 0 21.221249-9.564507 21.22125-21.221249s-9.564507-21.221249-21.22125-21.22125z" p-id="5320"></path><path d="M552.651742 573.870403H361.361607c-11.656743 0-21.221249 9.564507-21.221249 21.221249 0 11.656743 9.564507 21.221249 21.221249 21.221249h191.290135c11.656743 0 21.221249-9.564507 21.221249-21.221249 0-11.656743-9.564507-21.221249-21.221249-21.221249z" p-id="5321"></path></svg>